<?xml version="1.0" encoding="utf-8"?>
<!-- Generator: Adobe Illustrator 19.2.1, SVG Export Plug-In . SVG Version: 6.00 Build 0)  -->
<svg version="1.1" id="Layer_1" xmlns="http://www.w3.org/2000/svg" xmlns:xlink="http://www.w3.org/1999/xlink" x="0px" y="0px"
	 viewBox="0 0 1312.2 282.1" style="enable-background:new 0 0 1312.2 282.1;" xml:space="preserve">
<style type="text/css">
	.st0{display:none;}
	.st1{display:inline;fill:#2E2B28;}
	.st2{display:inline;}
	.st3{fill:#2E2B28;}
	.st4{fill:#FFFFFF;}
</style>
<g class="st0">
	<path class="st1" d="M175.1,167.4c-17.9,17.9-44,26.1-80.9,26.1H55.6L57-8.9h39c33.6,0,57.2,3.9,78,22.2c17.9,15.7,29,42.2,29,75.4
		C203,123.5,191.9,150.6,175.1,167.4 M110.3-32.9H-2v24h28.3l-1.4,202.4H-2v24H98.2c84.4,0,137.8-40.8,137.8-128.8
		C235.9,5.8,185.1-32.9,110.3-32.9"/>
	<path class="st1" d="M704.9,148c0-30.8,0.7-60,1.4-91.3h58v-24h-57.7l1.4-46.7L678-12.3l-0.7,45h-29.4v24h29
		c-0.3,27.4-1.4,82-1.4,104.5c0,23.6,0,60.5,51.5,60.5c15,0,32.2-3.9,41.5-8.6l1.1-24.8c-7.9,3.2-21.5,7.4-36.5,7.4
		C704.9,195.9,704.9,174.5,704.9,148"/>
	<path class="st1" d="M855.8,199.3c-19,0-34.7-11.1-34.7-31.8c0-34.7,44-34.7,87.7-34.7C908.7,184.2,874.8,199.3,855.8,199.3
		 M936.6,95.2c0-49-25.6-66.6-73.2-66.6c-22.5,0-44.4,6.1-65,14.3v44.5h27.2V58.7c13.7-5.7,30.4-6.7,40.8-6.7
		c29,0,42.6,12.5,42.6,47.2v13.2c-64.6,0-117.2,3-117.2,56.5c0,45.1,36.1,52.9,57.1,52.9c32.6,0,50.7-15,61.8-44.4h0.7
		c-1.4,6.8-3.5,21.8-3.5,32.6v7.5H956v-24h-20.8C935.2,160.3,936.6,111.3,936.6,95.2"/>
	<path class="st1" d="M1054.1,110.2c-27.2-4.6-44.7-10.7-44.7-30.8c0-20.2,25.6-28.3,42.2-28.3c8.6,0,25.8,1.3,32.5,7l0.7,26.3h27.2
		l-1.4-44.6c-14.3-6.1-42.9-11.2-58.3-11.2c-53,0-72.6,25.7-72.6,55.4c0,36.1,24.7,44.7,74.1,55.4c20,4.3,38.6,10.7,38.6,29
		c0,20.5-24.9,30.8-42.2,30.8c-12.2,0-30.8-2.7-41.9-8.1l-0.7-27.4h-27.2l1.4,47.1c11.5,6.1,43.3,11,63.3,11
		c53.3,0,75.5-26.2,75.5-59.1C1120.6,132.4,1101,118.1,1054.1,110.2"/>
	<polygon class="st1" points="1283.9,193.6 1199.1,193.6 1200.5,-8.8 1226.8,-8.8 1226.8,-32.9 1140.7,-32.9 1140.7,-8.8 
		1169.8,-8.8 1168.3,193.6 1140.7,193.6 1140.7,217.6 1311.1,217.6 1311.3,156 1285,156 	"/>
	<g class="st2">
		<path class="st3" d="M1390.9,194.3h-23.3l0.7-94.1h30.1c29.7,0,65.8,6.1,65.8,47.6C1464.3,194.7,1421.3,194.3,1390.9,194.3
			 M1369.1-9.6h30.4c16.5,0,50.4-0.7,50.4,42.2c0,37.9-32.2,45.1-63.7,45.1h-17.9L1369.1-9.6z M1432.1,86.2v-0.7
			c27.4-4.7,48.7-24.3,48.7-57.6c0-26.1-12.5-44-31.5-52.9c-14.3-6.8-27.9-7.9-52.2-7.9h-87.2v24h28.5l-2.1,226.4h72.3
			c44.7,0,88.7-16.1,88.7-69.8C1497.2,107.4,1464.4,85.9,1432.1,86.2"/>
	</g>
	<polygon class="st1" points="320.8,32.7 262.3,32.7 262.3,56.7 291.5,56.7 290.1,193.6 265.3,193.6 265.3,217.6 343.6,217.6 
		343.6,193.6 319.4,193.6 	"/>
	<polygon class="st1" points="611.7,32.7 553.2,32.7 553.2,56.7 582.3,56.7 580.9,193.6 556.1,193.6 556.1,217.6 634.4,217.6 
		634.4,193.6 610.2,193.6 	"/>
	<polygon class="st1" points="1519,32.7 1519,56.7 1548.2,56.7 1546.8,193.6 1522,193.6 1522,217.6 1600.2,217.6 1600.2,193.6 
		1576.1,193.6 1577.5,32.7 	"/>
	<path class="st1" d="M446.3,288.8c-18.1,0-61-3.9-61-32.3c0-24.1,36.5-32.9,40.1-32.9l48.9,7.1c16.3,2.5,31.2,5.6,31.2,21.9
		C505.6,278,469,288.8,446.3,288.8 M390.7,97.3c0-26.9,20.9-42.8,49.6-42.8c35.1,0,48.6,24,48.6,41.7c0,25.5-19.9,46.1-51,46.1
		C412.3,142.4,390.7,122.9,390.7,97.3 M485.4,205.5l-48.9-8.2c-23.1-3.6-30-6-30-15.2c0-13.1,24-17.8,31.5-17.8
		c42.9,0,77.3-24.1,77.3-64.9c0-12.7-2.3-26.6-13.3-39.5c-1.8-2.1-3.4-3.9-4.9-5.4l31.9,3.5V32.7L463.2,34l0.1,0.1
		c-7-2-15.1-3.4-24.4-3.4c-44.7,0-75.7,28.4-75.7,66.3c0,46.4,33.4,58.8,46.3,61.7v0.7c-15.6,3.9-33.4,8.9-33.4,27.6
		c0,17,13.2,25.2,27.9,28.4v0.7c-23.9,5.3-46.2,17.4-46.2,45c0,35.8,43.2,50,87.2,50c45.7,0,89.7-19.1,89.7-61.3
		C534.7,220.4,513.7,210.1,485.4,205.5"/>
	<path class="st1" d="M302.5-33.4c-12,0-21.8,9.8-21.8,21.8c0,12,9.8,21.8,21.8,21.8c12,0,21.8-9.8,21.8-21.8
		C324.3-23.6,314.5-33.4,302.5-33.4"/>
	<path class="st1" d="M593.3-33.4c-12,0-21.8,9.8-21.8,21.8c0,12,9.8,21.8,21.8,21.8c12,0,21.8-9.8,21.8-21.8
		C615.1-23.6,605.3-33.4,593.3-33.4"/>
	<path class="st1" d="M1559.2-33.4c-12,0-21.8,9.8-21.8,21.8c0,12,9.8,21.8,21.8,21.8c12,0,21.8-9.8,21.8-21.8
		C1581-23.6,1571.2-33.4,1559.2-33.4"/>
</g>
<g>
	<path class="st4" d="M145.1,164.4c-14.7,14.7-36,21.4-66.2,21.4H47.2l1.2-165.8h31.9c27.5,0,46.9,3.2,63.9,18.2
		c14.7,12.9,23.7,34.5,23.7,61.8C167.9,128.4,158.8,150.7,145.1,164.4 M92,0.4H0v19.7h23.1L22,185.8H0v19.7h82
		c69.2,0,112.8-33.4,112.8-105.5C194.9,32,153.3,0.4,92,0.4"/>
	<path class="st4" d="M578.9,148.5c0-25.2,0.6-49.1,1.2-74.8h47.5V54.1h-47.2l1.2-38.3l-24.7,1.4l-0.5,36.9h-24.1v19.7h23.8
		c-0.3,22.4-1.2,67.2-1.2,85.6c0,19.3,0,49.6,42.2,49.6c12.3,0,26.4-3.2,34-7l0.9-20.3c-6.4,2.6-17.6,6.1-29.9,6.1
		C578.9,187.8,578.9,170.2,578.9,148.5"/>
	<path class="st4" d="M702.5,190.6c-15.5,0-28.4-9.1-28.4-26.1c0-28.4,36-28.4,71.8-28.4C745.9,178.1,718.1,190.6,702.5,190.6
		 M768.7,105.3c0-40.1-21-54.5-59.9-54.5c-18.5,0-36.4,5-53.2,11.7v36.4h22.2V75.4c11.2-4.7,24.9-5.5,33.4-5.5
		c23.7,0,34.9,10.2,34.9,38.6v10.8c-52.9,0-95.9,2.4-95.9,46.3c0,36.9,29.5,43.4,46.8,43.4c26.7,0,41.6-12.3,50.6-36.3h0.6
		c-1.2,5.6-2.9,17.9-2.9,26.7v6.2h39.3v-19.7h-17C767.6,158.6,768.7,118.5,768.7,105.3"/>
	<path class="st4" d="M864.9,117.6c-22.3-3.8-36.6-8.8-36.6-25.2c0-16.5,21-23.1,34.6-23.1c7,0,21.1,1,26.7,5.7l0.6,21.6h22.3
		L911.2,60c-11.7-5-35.2-9.2-47.8-9.2c-43.4,0-59.5,21.1-59.5,45.4c0,29.6,20.2,36.6,60.7,45.4c16.4,3.5,31.6,8.8,31.6,23.7
		c0,16.8-20.4,25.2-34.6,25.2c-10,0-25.2-2.2-34.3-6.6l-0.6-22.5h-22.3l1.2,38.6c9.4,5,35.5,9,51.9,9c43.7,0,61.8-21.4,61.8-48.4
		C919.4,135.8,903.3,124,864.9,117.6"/>
	<polygon class="st4" points="1053.1,185.8 983.7,185.8 984.9,20.1 1006.4,20.1 1006.4,0.4 935.8,0.4 935.8,20.1 959.7,20.1 
		958.5,185.8 935.8,185.8 935.8,205.5 1075.4,205.5 1075.6,155 1054.1,155 	"/>
	<g>
		<path class="st4" d="M1140.8,186.5h-19l0.6-77.1h24.6c24.3,0,53.9,5,53.9,39C1200.9,186.8,1165.7,186.5,1140.8,186.5 M1122.9,19.4
			h24.9c13.5,0,41.3-0.6,41.3,34.6c0,31.1-26.4,36.9-52.2,36.9h-14.7L1122.9,19.4z M1174.5,98v-0.6c22.4-3.8,39.8-19.9,39.8-47.2
			c0-21.4-10.3-36-25.8-43.4c-11.7-5.6-22.8-6.5-42.8-6.5h-71.4v19.7h23.4l-1.7,185.4h59.2c36.6,0,72.7-13.2,72.7-57.1
			C1227.9,115.3,1201,97.7,1174.5,98"/>
	</g>
	<polygon class="st4" points="264.4,54.1 216.5,54.1 216.5,73.7 240.4,73.7 239.2,185.8 218.9,185.8 218.9,205.5 283,205.5 
		283,185.8 263.2,185.8 	"/>
	<polygon class="st4" points="502.6,54.1 454.7,54.1 454.7,73.7 478.6,73.7 477.4,185.8 457.1,185.8 457.1,205.5 521.2,205.5 
		521.2,185.8 501.4,185.8 	"/>
	<polygon class="st4" points="1245.7,54.1 1245.7,73.7 1269.6,73.7 1268.5,185.8 1248.1,185.8 1248.1,205.5 1312.2,205.5 
		1312.2,185.8 1292.5,185.8 1293.6,54.1 	"/>
	<path class="st4" d="M367.2,263.9c-14.8,0-49.9-3.2-49.9-26.4c0-19.7,29.9-26.9,32.8-26.9l40.1,5.8c13.3,2,25.5,4.6,25.5,17.9
		C415.7,255,385.8,263.9,367.2,263.9 M321.6,107c0-22.1,17.1-35.1,40.7-35.1C391,72,402,91.7,402,106.2c0,20.9-16.3,37.8-41.8,37.8
		C339.3,143.9,321.6,128,321.6,107 M399.1,195.6l-40.1-6.7c-18.9-2.9-24.6-4.9-24.6-12.5c0-10.7,19.7-14.5,25.8-14.5
		c35.1,0,63.3-19.7,63.3-53.1c0-10.4-1.9-21.8-10.9-32.4c-1.5-1.7-2.8-3.2-4-4.4l26.1,2.9V54.1L381,55.2l0.1,0.1
		c-5.8-1.7-12.4-2.8-20-2.8c-36.6,0-62,23.2-62,54.3c0,38,27.4,48.2,37.9,50.5v0.6c-12.8,3.2-27.4,7.3-27.4,22.6
		c0,13.9,10.8,20.6,22.9,23.2v0.6c-19.6,4.3-37.8,14.2-37.8,36.9c0,29.3,35.4,41,71.4,41c37.5,0,73.4-15.7,73.4-50.2
		C439.5,207.8,422.4,199.4,399.1,195.6"/>
	<path class="st4" d="M249.4,0c-9.8,0-17.9,8-17.9,17.8c0,9.8,8,17.9,17.9,17.9c9.8,0,17.9-8,17.9-17.9C267.2,8,259.2,0,249.4,0"/>
	<path class="st4" d="M487.6,0c-9.8,0-17.9,8-17.9,17.8c0,9.8,8,17.9,17.9,17.9c9.8,0,17.8-8,17.8-17.9C505.4,8,497.4,0,487.6,0"/>
	<path class="st4" d="M1278.6,0c-9.8,0-17.9,8-17.9,17.8c0,9.8,8,17.9,17.9,17.9c9.8,0,17.9-8,17.9-17.9C1296.5,8,1288.5,0,1278.6,0
		"/>
</g>
</svg>
