<?xml version="1.0" encoding="utf-8"?>
<!-- Generator: Adobe Illustrator 19.1.1, SVG Export Plug-In . SVG Version: 6.00 Build 0)  -->
<svg version="1.1" id="Calque_1" xmlns="http://www.w3.org/2000/svg" xmlns:xlink="http://www.w3.org/1999/xlink" x="0px" y="0px"
	 viewBox="0 0 54.7 36.1" style="enable-background:new 0 0 54.7 36.1;" xml:space="preserve">
<style type="text/css">
	.st0{fill:#E21013;}
	.st1{fill:#FFFFFF;}
</style>
<g>
	<path class="st0" d="M0,0v36.1h54.7V0H0z"/>
</g>
<g>
	<polygon class="st0" points="24.1,23 23.4,23.3 22.9,22.7 23,23.5 22.3,23.8 23.1,23.9 23.1,24.7 23.5,24 24.3,24.2 23.8,23.6 	"/>
	<polygon class="st0" points="25.9,12.3 26,13 26.4,12.4 27.2,12.5 26.6,12 27,11.4 26.3,11.7 25.8,11.1 25.9,11.9 25.2,12.2 	"/>
	<polygon class="st0" points="20.2,17.8 20.6,17.2 21.4,17.4 20.8,16.8 21.2,16.2 20.5,16.5 20,15.9 20.1,16.7 19.4,17 20.1,17.1 	
		"/>
	<path class="st0" d="M23.5,11.6c0,0,1.2-3.9,5.9-3.6c0,0-1.4,0.6-1.1,1.9c0.3,1.4,0.9,0.9,0.5,3.1c0,0-0.4,0.9-1,1.3
		c-0.6,0.4-0.9,0.5-1.2,0.8c-0.3,0.4-0.5,0.7-0.6,1.4c0,0.6,0.1,0.9,0.6,1.6c0,0-0.7-0.4-1.1-1.3c-0.5-0.9-0.8-2.5,0.2-4l-0.1-0.1
		c0,0-1.3,1.6-0.3,4c0,0,0.6,1.1,1.1,1.4C26.3,18.1,21.9,16.1,23.5,11.6z"/>
	<path class="st0" d="M17.4,12.7c0,0,0.1,1.4,1.6,1.6c1.5,0.2,1.2-0.6,3.2,0.6c0,0,0.7,0.6,0.9,1.3c0.2,0.7,0.2,1,0.4,1.3
		c0.3,0.4,0.6,0.7,1.2,1c0.6,0.2,0.9,0.2,1.7-0.1c0,0-0.6,0.5-1.6,0.6c-1,0.1-2.7-0.1-3.9-1.4l-0.1,0.1c0,0,1.2,1.7,3.8,1.5
		c0,0,1.2-0.2,1.7-0.6c0,0-3.4,3.3-7.3,0.5C19.1,19.2,15.7,17,17.4,12.7z"/>
	<path class="st0" d="M25.3,25.6c0,0-3.3,2.5-7-0.5c0,0,1.4,0.3,2.1-0.9c0.6-1.3-0.2-1.3,1.5-2.7c0,0,0.9-0.5,1.6-0.4
		c0.8,0,1,0.2,1.5,0c0.4-0.1,0.9-0.3,1.3-0.8c0.4-0.5,0.5-0.8,0.5-1.6c0,0,0.3,0.7,0.1,1.7c-0.2,1-0.9,2.4-2.6,3.1l0,0.2
		c0,0,2-0.6,2.7-3c0,0,0.2-1.2,0-1.7C27.1,18.8,29.3,22.9,25.3,25.6z"/>
	<path class="st0" d="M31,28.1c0,0,0.8-1.2-0.3-2.2c-1.1-1-1.3-0.2-2.3-2.2c0,0-0.2-0.9,0.1-1.6c0.3-0.7,0.5-0.9,0.5-1.3
		c0-0.4,0-0.9-0.4-1.4c-0.4-0.5-0.6-0.7-1.4-0.9c0,0,0.8-0.1,1.7,0.4c0.9,0.5,2.1,1.6,2.3,3.3l0.2,0c0,0,0.1-2-2.2-3.4
		c0,0-1.1-0.5-1.7-0.5c0,0,4.8-0.8,6.2,3.7C33.6,21.9,35,25.7,31,28.1z"/>
	<path class="st0" d="M35.5,17.1c-1.3,0.7-0.6,1.2-2.9,1.4c0,0-1-0.1-1.6-0.6c-0.6-0.5-0.7-0.7-1.2-0.8c-0.4-0.1-0.9-0.3-1.6-0.1
		c-0.6,0.2-0.9,0.4-1.4,1c0,0,0.2-0.7,0.9-1.4c0.7-0.7,2.2-1.5,4-1.1l0.1-0.1c0,0-2-0.7-4,1c0,0-0.9,0.8-1,1.4c0,0,0.6-4.6,5.5-4.6
		c0,0,4.2-0.2,5.4,4.2C37.8,17.4,36.8,16.4,35.5,17.1z"/>
	<polygon class="st0" points="33.6,15.2 32.9,15.5 32.3,14.9 32.4,15.7 31.7,16 32.5,16.1 32.6,16.9 33,16.2 33.7,16.3 33.2,15.8 	
		"/>
	<polygon class="st0" points="31.8,22.4 31.2,22.7 30.6,22.1 30.7,22.9 30,23.2 30.8,23.3 30.9,24.1 31.2,23.4 32,23.6 31.5,23 	"/>
	<path class="st1" d="M26.3,18.1c-0.5-0.3-1.1-1.4-1.1-1.4c-1-2.4,0.3-4,0.3-4l0.1,0.1c-0.9,1.5-0.7,3.1-0.2,4
		c0.5,0.9,1.1,1.3,1.1,1.3c-0.5-0.7-0.6-0.9-0.6-1.6c0-0.6,0.3-1,0.6-1.4c0.3-0.4,0.6-0.4,1.2-0.8c0.6-0.4,1-1.3,1-1.3
		c0.5-2.2-0.2-1.7-0.5-3.1C28,8.6,29.4,8,29.4,8c-4.7-0.3-5.9,3.6-5.9,3.6C21.9,16.1,26.3,18.1,26.3,18.1z M25.8,11.1l0.5,0.5
		l0.7-0.3L26.6,12l0.5,0.5l-0.8-0.1L26,13l-0.1-0.7l-0.8-0.1l0.7-0.3L25.8,11.1z"/>
	<path class="st1" d="M32.4,13.2c-4.9,0-5.5,4.6-5.5,4.6c0.2-0.6,1-1.4,1-1.4c2-1.6,4-1,4-1l-0.1,0.1c-1.8-0.4-3.3,0.4-4,1.1
		c-0.7,0.7-0.9,1.4-0.9,1.4c0.5-0.7,0.7-0.8,1.4-1c0.6-0.2,1.1-0.1,1.6,0.1c0.4,0.1,0.6,0.4,1.2,0.8c0.6,0.5,1.6,0.6,1.6,0.6
		c2.3-0.2,1.6-0.7,2.9-1.4c1.3-0.7,2.3,0.4,2.3,0.4C36.6,13,32.4,13.2,32.4,13.2z M33,16.2l-0.4,0.6l-0.1-0.7L31.7,16l0.7-0.3
		l-0.1-0.7l0.5,0.5l0.7-0.3l-0.4,0.6l0.5,0.5L33,16.2z"/>
	<path class="st1" d="M27.4,18.2c0.6,0,1.7,0.5,1.7,0.5c2.2,1.4,2.2,3.4,2.2,3.4l-0.2,0c-0.1-1.7-1.4-2.9-2.3-3.3
		c-0.9-0.5-1.7-0.4-1.7-0.4c0.8,0.2,1.1,0.4,1.4,0.9c0.4,0.5,0.4,1,0.4,1.4c0,0.4-0.2,0.7-0.5,1.3c-0.3,0.7-0.1,1.6-0.1,1.6
		c0.9,2,1.2,1.3,2.3,2.2c1.1,1,0.3,2.2,0.3,2.2c4-2.4,2.6-6.2,2.6-6.2C32.1,17.4,27.4,18.2,27.4,18.2z M31.2,23.4l-0.4,0.6l-0.1-0.7
		L30,23.2l0.7-0.3l-0.1-0.7l0.5,0.5l0.7-0.3L31.5,23l0.5,0.5L31.2,23.4z"/>
	<path class="st1" d="M27.1,20.5c-0.7,2.5-2.7,3-2.7,3l0-0.2c1.7-0.7,2.5-2.1,2.6-3.1c0.2-1-0.1-1.7-0.1-1.7c0,0.8-0.1,1.1-0.5,1.6
		c-0.4,0.5-0.9,0.7-1.3,0.8c-0.4,0.1-0.7,0-1.5,0c-0.8,0-1.6,0.4-1.6,0.4c-1.7,1.5-0.9,1.5-1.5,2.7c-0.6,1.3-2.1,0.9-2.1,0.9
		c3.6,2.9,7,0.5,7,0.5c4-2.7,1.8-6.8,1.8-6.8C27.3,19.4,27.1,20.5,27.1,20.5z M23.5,24l-0.4,0.6l-0.1-0.7l-0.7-0.2l0.7-0.3l-0.1-0.7
		l0.5,0.5l0.7-0.3l-0.4,0.6l0.5,0.5L23.5,24z"/>
	<path class="st1" d="M19.1,19.2c3.9,2.8,7.3-0.5,7.3-0.5c-0.5,0.4-1.7,0.6-1.7,0.6c-2.7,0.1-3.8-1.5-3.8-1.5l0.1-0.1
		c1.2,1.3,2.9,1.6,3.9,1.4c1-0.1,1.6-0.6,1.6-0.6c-0.8,0.3-1.1,0.3-1.7,0.1c-0.6-0.2-0.9-0.6-1.2-1c-0.3-0.4-0.2-0.6-0.4-1.3
		c-0.2-0.7-0.9-1.3-0.9-1.3c-2-1.1-1.7-0.4-3.2-0.6c-1.5-0.2-1.6-1.6-1.6-1.6C15.7,17,19.1,19.2,19.1,19.2z M20.1,16.7L20,15.9
		l0.5,0.5l0.7-0.3l-0.4,0.6l0.5,0.5l-0.7-0.1l-0.4,0.6l-0.1-0.7L19.4,17L20.1,16.7z"/>
</g>
</svg>
