<?xml version="1.0" encoding="utf-8"?>
<!-- Generator: Adobe Illustrator 19.1.1, SVG Export Plug-In . SVG Version: 6.00 Build 0)  -->
<svg version="1.1" id="Calque_1" xmlns="http://www.w3.org/2000/svg" xmlns:xlink="http://www.w3.org/1999/xlink" x="0px" y="0px"
	 viewBox="0 0 54.7 36.1" style="enable-background:new 0 0 54.7 36.1;" xml:space="preserve">
<style type="text/css">
	.st0{fill:#3C4898;}
	.st1{fill:#FFFFFF;}
	.st2{fill:#E20A13;}
</style>
<g>
	<polygon class="st0" points="6.1,36.1 22.8,36.1 22.8,25.1 	"/>
	<polygon class="st0" points="0,4 0,12 12.1,12 	"/>
	<polygon class="st0" points="54.7,12 54.7,4.1 42.6,12 	"/>
	<polygon class="st0" points="54.7,32 54.7,24 42.6,24 	"/>
	<polygon class="st0" points="0,24 0,32.1 12.2,24 	"/>
	<polygon class="st0" points="31.9,36.1 48.6,36.1 31.9,25.1 	"/>
	<polygon class="st0" points="48.5,0 31.9,0 31.9,11 	"/>
	<polygon class="st0" points="22.8,0 6.3,0 22.8,10.9 	"/>
	<polygon class="st1" points="17.8,14.5 21.9,14.5 22.8,14.5 24.6,14.5 24.6,12.1 24.6,12 24.6,0 22.8,0 22.8,10.9 6.3,0 0,0 
		18.2,12 14,12 0,2.7 0,4 12.1,12 0,12 0,14.5 15.8,14.5 	"/>
	<polygon class="st1" points="36.7,21.6 32.6,21.6 31.9,21.6 30,21.6 30,23.9 30,24 30,36.1 31.9,36.1 31.9,25.1 48.6,36.1 
		54.7,36.1 36.3,24 40.4,24 54.7,33.4 54.7,32 42.6,24 54.7,24 54.7,21.6 38.9,21.6 	"/>
	<polygon class="st1" points="24.6,23.9 24.6,22.5 24.6,21.6 22.8,21.6 22.1,21.6 15.9,21.6 0,21.6 0,24 12.2,24 0,32.1 0,36.1 
		18.3,24 22.3,24 4,36.1 6.1,36.1 22.8,25.1 22.8,36.1 24.6,36.1 24.6,24 	"/>
	<polygon class="st1" points="32.3,12 50.4,0 48.5,0 31.9,11 31.9,0 30,0 30,12 30,12.2 30,13.5 30,14.5 31.9,14.5 32.8,14.5 
		38.9,14.5 54.7,14.5 54.7,12 42.6,12 54.7,4.1 54.7,0 36.5,12 	"/>
	<polygon class="st2" points="18.2,12 0,0 0,2.7 14,12 	"/>
	<polygon class="st2" points="36.3,24 54.7,36.1 54.7,33.4 40.4,24 	"/>
	<polygon class="st2" points="32.3,12 36.5,12 54.7,0 50.4,0 	"/>
	<polygon class="st2" points="18.3,24 0,36.1 4,36.1 22.3,24 	"/>
	<polygon class="st2" points="32.8,14.5 31.9,14.5 30,14.5 30,13.5 30,12.2 30,12 30,0 24.6,0 24.6,12 24.6,12.1 24.6,14.5 
		22.8,14.5 21.9,14.5 17.8,14.5 15.8,14.5 0,14.5 0,21.6 15.9,21.6 22.1,21.6 22.8,21.6 24.6,21.6 24.6,22.5 24.6,23.9 24.6,24 
		24.6,36.1 30,36.1 30,24 30,23.9 30,21.6 31.9,21.6 32.6,21.6 36.7,21.6 38.9,21.6 54.7,21.6 54.7,14.5 38.9,14.5 	"/>
</g>
</svg>
