<?xml version="1.0" encoding="utf-8"?>
<!-- Generator: Adobe Illustrator 19.1.1, SVG Export Plug-In . SVG Version: 6.00 Build 0)  -->
<svg version="1.1" id="Calque_1" xmlns="http://www.w3.org/2000/svg" xmlns:xlink="http://www.w3.org/1999/xlink" x="0px" y="0px"
	 viewBox="0 0 54.6 36.1" style="enable-background:new 0 0 54.6 36.1;" xml:space="preserve">
<style type="text/css">
	.st0{fill:#FFFFFF;}
	.st1{fill:#E20A13;}
	.st2{fill:#3C4898;}
</style>
<g>
	<rect class="st0" width="54.6" height="36.1"/>
	<rect class="st1" width="54.6" height="2.8"/>
	<rect y="5.6" class="st1" width="54.6" height="2.8"/>
	<rect y="11.1" class="st1" width="54.6" height="2.8"/>
	<rect y="16.7" class="st1" width="54.6" height="2.8"/>
	<rect y="22.2" class="st1" width="54.6" height="2.8"/>
	<rect y="27.8" class="st1" width="54.6" height="2.8"/>
	<rect y="33.4" class="st1" width="54.6" height="2.8"/>
	<rect class="st2" width="27.5" height="19.5"/>
	<g>
		<g>
			<g>
				<g>
					<g>
						<g>
							<g>
								<g>
									<g>
										<polygon class="st0" points="2.5,2.3 3.4,1.6 2.2,1.6 										"/>
									</g>
									<g>
										<polygon class="st0" points="2.1,2.1 3,2.8 2.6,1.7 										"/>
									</g>
									<g>
										<polygon class="st0" points="2.1,1.7 1.7,2.8 2.6,2.1 										"/>
									</g>
									<g>
										<polygon class="st0" points="2.5,1.6 1.3,1.6 2.2,2.3 										"/>
									</g>
									<g>
										<polygon class="st0" points="2.7,1.9 2.3,0.8 2,1.9 										"/>
									</g>
								</g>
								<g>
									<g>
										<g>
											<polygon class="st0" points="7,2.3 8,1.6 6.8,1.6 											"/>
										</g>
										<g>
											<polygon class="st0" points="6.6,2.1 7.6,2.8 7.2,1.7 											"/>
										</g>
										<g>
											<polygon class="st0" points="6.6,1.7 6.2,2.8 7.2,2.1 											"/>
										</g>
										<g>
											<polygon class="st0" points="7,1.6 5.8,1.6 6.8,2.3 											"/>
										</g>
										<g>
											<polygon class="st0" points="7.3,1.9 6.9,0.8 6.5,1.9 											"/>
										</g>
									</g>
									<g>
										<g>
											<g>
												<polygon class="st0" points="11.6,2.3 12.5,1.6 11.3,1.6 												"/>
											</g>
											<g>
												<polygon class="st0" points="11.2,2.1 12.1,2.8 11.8,1.7 												"/>
											</g>
											<g>
												<polygon class="st0" points="11.2,1.7 10.8,2.8 11.8,2.1 												"/>
											</g>
											<g>
												<polygon class="st0" points="11.6,1.6 10.4,1.6 11.3,2.3 												"/>
											</g>
											<g>
												<polygon class="st0" points="11.8,1.9 11.5,0.8 11.1,1.9 												"/>
											</g>
										</g>
										<g>
											<g>
												<g>
													<polygon class="st0" points="16.1,2.3 17.1,1.6 15.9,1.6 													"/>
												</g>
												<g>
													<polygon class="st0" points="15.7,2.1 16.7,2.8 16.3,1.7 													"/>
												</g>
												<g>
													<polygon class="st0" points="15.7,1.7 15.4,2.8 16.3,2.1 													"/>
												</g>
												<g>
													<polygon class="st0" points="16.1,1.6 15,1.6 15.9,2.3 													"/>
												</g>
												<g>
													<polygon class="st0" points="16.4,1.9 16,0.8 15.6,1.9 													"/>
												</g>
											</g>
											<g>
												<g>
													<g>
														<polygon class="st0" points="20.7,2.3 21.6,1.6 20.5,1.6 														"/>
													</g>
													<g>
														<polygon class="st0" points="20.3,2.1 21.2,2.8 20.9,1.7 														"/>
													</g>
													<g>
														<polygon class="st0" points="20.3,1.7 19.9,2.8 20.9,2.1 														"/>
													</g>
													<g>
														<polygon class="st0" points="20.7,1.6 19.5,1.6 20.5,2.3 														"/>
													</g>
													<g>
														<polygon class="st0" points="20.9,1.9 20.6,0.8 20.2,1.9 														"/>
													</g>
												</g>
											</g>
											<g>
												<g>
													<g>
														<polygon class="st0" points="25.2,2.3 26.2,1.6 25,1.6 														"/>
													</g>
													<g>
														<polygon class="st0" points="24.8,2.1 25.8,2.8 25.4,1.7 														"/>
													</g>
													<g>
														<polygon class="st0" points="24.8,1.7 24.5,2.8 25.4,2.1 														"/>
													</g>
													<g>
														<polygon class="st0" points="25.2,1.6 24.1,1.6 25,2.3 														"/>
													</g>
													<g>
														<polygon class="st0" points="25.5,1.9 25.1,0.8 24.8,1.9 														"/>
													</g>
												</g>
											</g>
											<g>
												<g>
													<g>
														<g>
															<g>
																<polygon class="st0" points="4.7,4.2 5.7,3.5 4.5,3.5 																"/>
															</g>
															<g>
																<polygon class="st0" points="4.3,4.1 5.3,4.8 4.9,3.7 																"/>
															</g>
															<g>
																<polygon class="st0" points="4.3,3.7 4,4.8 4.9,4.1 																"/>
															</g>
															<g>
																<polygon class="st0" points="4.7,3.5 3.6,3.5 4.5,4.2 																"/>
															</g>
															<g>
																<polygon class="st0" points="5,3.9 4.6,2.8 4.3,3.9 																"/>
															</g>
														</g>
														<g>
															<g>
																<g>
																	<polygon class="st0" points="9.3,4.2 10.2,3.5 9.1,3.5 																	"/>
																</g>
																<g>
																	<polygon class="st0" points="8.9,4.1 9.8,4.8 9.5,3.7 																	"/>
																</g>
																<g>
																	<polygon class="st0" points="8.9,3.7 8.5,4.8 9.5,4.1 																	"/>
																</g>
																<g>
																	<polygon class="st0" points="9.3,3.5 8.1,3.5 9.1,4.2 																	"/>
																</g>
																<g>
																	<polygon class="st0" points="9.5,3.9 9.2,2.8 8.8,3.9 																	"/>
																</g>
															</g>
															<g>
																<g>
																	<g>
																		<polygon class="st0" points="13.8,4.2 14.8,3.5 13.6,3.5 																		"/>
																	</g>
																	<g>
																		<polygon class="st0" points="13.4,4.1 14.4,4.8 14,3.7 																		"/>
																	</g>
																	<g>
																		<polygon class="st0" points="13.4,3.7 13.1,4.8 14,4.1 																		"/>
																	</g>
																	<g>
																		<polygon class="st0" points="13.8,3.5 12.7,3.5 13.6,4.2 																		"/>
																	</g>
																	<g>
																		<polygon class="st0" points="14.1,3.9 13.7,2.8 13.4,3.9 																		"/>
																	</g>
																</g>
																<g>
																	<g>
																		<g>
																			<polygon class="st0" points="18.4,4.2 19.3,3.5 18.2,3.5 																			"/>
																		</g>
																		<g>
																			<polygon class="st0" points="18,4.1 18.9,4.8 18.6,3.7 																			"/>
																		</g>
																		<g>
																			<polygon class="st0" points="18,3.7 17.6,4.8 18.6,4.1 																			"/>
																		</g>
																		<g>
																			<polygon class="st0" points="18.4,3.5 17.2,3.5 18.2,4.2 																			"/>
																		</g>
																		<g>
																			<polygon class="st0" points="18.6,3.9 18.3,2.8 17.9,3.9 																			"/>
																		</g>
																	</g>
																	<g>
																		<g>
																			<g>
																				<polygon class="st0" points="23,4.2 23.9,3.5 22.7,3.5 																				"/>
																			</g>
																			<g>
																				<polygon class="st0" points="22.5,4.1 23.5,4.8 23.1,3.7 																				"/>
																			</g>
																			<g>
																				<polygon class="st0" points="22.5,3.7 22.2,4.8 23.1,4.1 																				"/>
																			</g>
																			<g>
																				<polygon class="st0" points="23,3.5 21.8,3.5 22.7,4.2 																				"/>
																			</g>
																			<g>
																				<polygon class="st0" points="23.2,3.9 22.8,2.8 22.5,3.9 																				"/>
																			</g>
																		</g>
																	</g>
																	<g>
																		<g>
																			<g>
																				<g>
																					<g>
																						<g>
																							<g>
																								<polygon class="st0" points="2.5,6.2 3.4,5.5 2.2,5.5 																								"/>
																							</g>
																							<g>
																								<polygon class="st0" points="2.1,6 3,6.7 2.6,5.6 																								"/>
																							</g>
																							<g>
																								<polygon class="st0" points="2.1,5.6 1.7,6.7 2.6,6 																								"/>
																							</g>
																							<g>
																								<polygon class="st0" points="2.5,5.5 1.3,5.5 2.2,6.2 																								"/>
																							</g>
																							<g>
																								<polygon class="st0" points="2.7,5.8 2.3,4.7 2,5.8 																								"/>
																							</g>
																						</g>
																						<g>
																							<g>
																								<g>
																									<polygon class="st0" points="7,6.2 8,5.5 6.8,5.5 																									"/>
																								</g>
																								<g>
																									<polygon class="st0" points="6.6,6 7.6,6.7 7.2,5.6 																									"/>
																								</g>
																								<g>
																									<polygon class="st0" points="6.6,5.6 6.2,6.7 7.2,6 																									"/>
																								</g>
																								<g>
																									<polygon class="st0" points="7,5.5 5.8,5.5 6.8,6.2 																									"/>
																								</g>
																								<g>
																									<polygon class="st0" points="7.3,5.8 6.9,4.7 6.5,5.8 																									"/>
																								</g>
																							</g>
																							<g>
																								<g>
																									<g>
																										<polygon class="st0" points="11.6,6.2 12.5,5.5 11.3,5.5 																										"/>
																									</g>
																									<g>
																										<polygon class="st0" points="11.2,6 12.1,6.7 11.8,5.6 																										"/>
																									</g>
																									<g>
																										<polygon class="st0" points="11.2,5.6 10.8,6.7 11.8,6 																										"/>
																									</g>
																									<g>
																										<polygon class="st0" points="11.6,5.5 10.4,5.5 11.3,6.2 																										"/>
																									</g>
																									<g>
																										<polygon class="st0" points="11.8,5.8 11.5,4.7 11.1,5.8 																										"/>
																									</g>
																								</g>
																								<g>
																									<g>
																										<g>
																											<polygon class="st0" points="16.1,6.2 17.1,5.5 15.9,5.5 																											"/>
																										</g>
																										<g>
																											<polygon class="st0" points="15.7,6 16.7,6.7 16.3,5.6 																											"/>
																										</g>
																										<g>
																											<polygon class="st0" points="15.7,5.6 15.4,6.7 16.3,6 																											"/>
																										</g>
																										<g>
																											<polygon class="st0" points="16.1,5.5 15,5.5 15.9,6.2 																											"/>
																										</g>
																										<g>
																											<polygon class="st0" points="16.4,5.8 16,4.7 15.6,5.8 																											"/>
																										</g>
																									</g>
																									<g>
																										<g>
																											<g>
																												<polygon class="st0" points="20.7,6.2 21.6,5.5 20.5,5.5 																												"/>
																											</g>
																											<g>
																												<polygon class="st0" points="20.3,6 21.2,6.7 20.9,5.6 																												"/>
																											</g>
																											<g>
																												<polygon class="st0" points="20.3,5.6 19.9,6.7 20.9,6 																												"/>
																											</g>
																											<g>
																												<polygon class="st0" points="20.7,5.5 19.5,5.5 20.5,6.2 																												"/>
																											</g>
																											<g>
																												<polygon class="st0" points="20.9,5.8 20.6,4.7 20.2,5.8 																												"/>
																											</g>
																										</g>
																									</g>
																									<g>
																										<g>
																											<g>
																												<polygon class="st0" points="25.2,6.2 26.2,5.5 25,5.5 																												"/>
																											</g>
																											<g>
																												<polygon class="st0" points="24.8,6 25.8,6.7 25.4,5.6 																												"/>
																											</g>
																											<g>
																												<polygon class="st0" points="24.8,5.6 24.5,6.7 25.4,6 																												"/>
																											</g>
																											<g>
																												<polygon class="st0" points="25.2,5.5 24.1,5.5 25,6.2 																												"/>
																											</g>
																											<g>
																												<polygon class="st0" points="25.5,5.8 25.1,4.7 24.8,5.8 																												"/>
																											</g>
																										</g>
																									</g>
																								</g>
																							</g>
																						</g>
																					</g>
																				</g>
																			</g>
																		</g>
																	</g>
																</g>
															</g>
														</g>
													</g>
												</g>
											</g>
										</g>
									</g>
								</g>
							</g>
						</g>
					</g>
				</g>
			</g>
		</g>
		<g>
			<g>
				<g>
					<g>
						<g>
							<g>
								<g>
									<g>
										<g>
											<g>
												<g>
													<g>
														<polygon class="st0" points="4.8,8.3 5.7,7.6 4.6,7.6 														"/>
													</g>
													<g>
														<polygon class="st0" points="4.4,8.1 5.3,8.8 5,7.7 														"/>
													</g>
													<g>
														<polygon class="st0" points="4.4,7.7 4,8.8 5,8.1 														"/>
													</g>
													<g>
														<polygon class="st0" points="4.8,7.6 3.6,7.6 4.6,8.3 														"/>
													</g>
													<g>
														<polygon class="st0" points="5,7.9 4.7,6.8 4.3,7.9 														"/>
													</g>
												</g>
												<g>
													<g>
														<g>
															<polygon class="st0" points="9.3,8.3 10.3,7.6 9.1,7.6 															"/>
														</g>
														<g>
															<polygon class="st0" points="8.9,8.1 9.9,8.8 9.5,7.7 															"/>
														</g>
														<g>
															<polygon class="st0" points="8.9,7.7 8.6,8.8 9.5,8.1 															"/>
														</g>
														<g>
															<polygon class="st0" points="9.3,7.6 8.2,7.6 9.1,8.3 															"/>
														</g>
														<g>
															<polygon class="st0" points="9.6,7.9 9.2,6.8 8.9,7.9 															"/>
														</g>
													</g>
													<g>
														<g>
															<g>
																<polygon class="st0" points="13.9,8.3 14.8,7.6 13.7,7.6 																"/>
															</g>
															<g>
																<polygon class="st0" points="13.5,8.1 14.4,8.8 14.1,7.7 																"/>
															</g>
															<g>
																<polygon class="st0" points="13.5,7.7 13.1,8.8 14.1,8.1 																"/>
															</g>
															<g>
																<polygon class="st0" points="13.9,7.6 12.7,7.6 13.7,8.3 																"/>
															</g>
															<g>
																<polygon class="st0" points="14.2,7.9 13.8,6.8 13.4,7.9 																"/>
															</g>
														</g>
														<g>
															<g>
																<g>
																	<polygon class="st0" points="18.5,8.3 19.4,7.6 18.2,7.6 																	"/>
																</g>
																<g>
																	<polygon class="st0" points="18.1,8.1 19,8.8 18.6,7.7 																	"/>
																</g>
																<g>
																	<polygon class="st0" points="18.1,7.7 17.7,8.8 18.6,8.1 																	"/>
																</g>
																<g>
																	<polygon class="st0" points="18.5,7.6 17.3,7.6 18.2,8.3 																	"/>
																</g>
																<g>
																	<polygon class="st0" points="18.7,7.9 18.3,6.8 18,7.9 																	"/>
																</g>
															</g>
															<g>
																<g>
																	<g>
																		<polygon class="st0" points="23,8.3 24,7.6 22.8,7.6 																		"/>
																	</g>
																	<g>
																		<polygon class="st0" points="22.6,8.1 23.6,8.8 23.2,7.7 																		"/>
																	</g>
																	<g>
																		<polygon class="st0" points="22.6,7.7 22.2,8.8 23.2,8.1 																		"/>
																	</g>
																	<g>
																		<polygon class="st0" points="23,7.6 21.8,7.6 22.8,8.3 																		"/>
																	</g>
																	<g>
																		<polygon class="st0" points="23.3,7.9 22.9,6.8 22.5,7.9 																		"/>
																	</g>
																</g>
															</g>
															<g>
																<g>
																	<g>
																		<g>
																			<g>
																				<g>
																					<g>
																						<polygon class="st0" points="2.5,10.2 3.5,9.5 2.3,9.5 																						"/>
																					</g>
																					<g>
																						<polygon class="st0" points="2.1,10.1 3.1,10.8 2.7,9.7 																						"/>
																					</g>
																					<g>
																						<polygon class="st0" points="2.1,9.7 1.8,10.8 2.7,10.1 																						"/>
																					</g>
																					<g>
																						<polygon class="st0" points="2.5,9.5 1.3,9.5 2.3,10.2 																						"/>
																					</g>
																					<g>
																						<polygon class="st0" points="2.8,9.9 2.4,8.8 2,9.9 																						"/>
																					</g>
																				</g>
																				<g>
																					<g>
																						<g>
																							<polygon class="st0" points="7.1,10.2 8,9.5 6.8,9.5 																							"/>
																						</g>
																						<g>
																							<polygon class="st0" points="6.7,10.1 7.6,10.8 7.3,9.7 																							"/>
																						</g>
																						<g>
																							<polygon class="st0" points="6.7,9.7 6.3,10.8 7.3,10.1 																							"/>
																						</g>
																						<g>
																							<polygon class="st0" points="7.1,9.5 5.9,9.5 6.8,10.2 																							"/>
																						</g>
																						<g>
																							<polygon class="st0" points="7.3,9.9 7,8.8 6.6,9.9 																							"/>
																						</g>
																					</g>
																					<g>
																						<g>
																							<g>
																								<polygon class="st0" points="11.6,10.2 12.6,9.5 11.4,9.5 																								"/>
																							</g>
																							<g>
																								<polygon class="st0" points="11.2,10.1 12.2,10.8 11.8,9.7 																								"/>
																							</g>
																							<g>
																								<polygon class="st0" points="11.2,9.7 10.9,10.8 11.8,10.1 																								"/>
																							</g>
																							<g>
																								<polygon class="st0" points="11.6,9.5 10.5,9.5 11.4,10.2 																								"/>
																							</g>
																							<g>
																								<polygon class="st0" points="11.9,9.9 11.5,8.8 11.2,9.9 																								"/>
																							</g>
																						</g>
																						<g>
																							<g>
																								<g>
																									<polygon class="st0" points="16.2,10.2 17.1,9.5 16,9.5 																									"/>
																								</g>
																								<g>
																									<polygon class="st0" points="15.8,10.1 16.7,10.8 16.4,9.7 																									"/>
																								</g>
																								<g>
																									<polygon class="st0" points="15.8,9.7 15.4,10.8 16.4,10.1 																									"/>
																								</g>
																								<g>
																									<polygon class="st0" points="16.2,9.5 15,9.5 16,10.2 																									"/>
																								</g>
																								<g>
																									<polygon class="st0" points="16.4,9.9 16.1,8.8 15.7,9.9 																									"/>
																								</g>
																							</g>
																							<g>
																								<g>
																									<g>
																										<polygon class="st0" points="20.7,10.2 21.7,9.5 20.5,9.5 																										"/>
																									</g>
																									<g>
																										<polygon class="st0" points="20.3,10.1 21.3,10.8 20.9,9.7 																										"/>
																									</g>
																									<g>
																										<polygon class="st0" points="20.3,9.7 20,10.8 20.9,10.1 																										"/>
																									</g>
																									<g>
																										<polygon class="st0" points="20.7,9.5 19.6,9.5 20.5,10.2 																										"/>
																									</g>
																									<g>
																										<polygon class="st0" points="21,9.9 20.6,8.8 20.3,9.9 																										"/>
																									</g>
																								</g>
																							</g>
																							<g>
																								<g>
																									<g>
																										<polygon class="st0" points="25.3,10.2 26.2,9.5 25.1,9.5 																										"/>
																									</g>
																									<g>
																										<polygon class="st0" points="24.9,10.1 25.8,10.8 25.5,9.7 																										"/>
																									</g>
																									<g>
																										<polygon class="st0" points="24.9,9.7 24.5,10.8 25.5,10.1 																										"/>
																									</g>
																									<g>
																										<polygon class="st0" points="25.3,9.5 24.1,9.5 25.1,10.2 																										"/>
																									</g>
																									<g>
																										<polygon class="st0" points="25.5,9.9 25.2,8.8 24.8,9.9 																										"/>
																									</g>
																								</g>
																							</g>
																						</g>
																					</g>
																				</g>
																			</g>
																		</g>
																	</g>
																</g>
															</g>
														</g>
													</g>
												</g>
											</g>
										</g>
									</g>
								</g>
							</g>
						</g>
					</g>
				</g>
			</g>
		</g>
		<g>
			<g>
				<g>
					<g>
						<g>
							<g>
								<g>
									<g>
										<g>
											<g>
												<g>
													<g>
														<polygon class="st0" points="4.8,12 5.7,11.4 4.5,11.4 														"/>
													</g>
													<g>
														<polygon class="st0" points="4.4,11.9 5.3,12.6 5,11.5 														"/>
													</g>
													<g>
														<polygon class="st0" points="4.4,11.5 4,12.6 5,11.9 														"/>
													</g>
													<g>
														<polygon class="st0" points="4.8,11.4 3.6,11.4 4.5,12 														"/>
													</g>
													<g>
														<polygon class="st0" points="5,11.7 4.7,10.6 4.3,11.7 														"/>
													</g>
												</g>
												<g>
													<g>
														<g>
															<polygon class="st0" points="9.3,12 10.3,11.4 9.1,11.4 															"/>
														</g>
														<g>
															<polygon class="st0" points="8.9,11.9 9.9,12.6 9.5,11.5 															"/>
														</g>
														<g>
															<polygon class="st0" points="8.9,11.5 8.6,12.6 9.5,11.9 															"/>
														</g>
														<g>
															<polygon class="st0" points="9.3,11.4 8.2,11.4 9.1,12 															"/>
														</g>
														<g>
															<polygon class="st0" points="9.6,11.7 9.2,10.6 8.8,11.7 															"/>
														</g>
													</g>
													<g>
														<g>
															<g>
																<polygon class="st0" points="13.9,12 14.8,11.4 13.7,11.4 																"/>
															</g>
															<g>
																<polygon class="st0" points="13.5,11.9 14.4,12.6 14.1,11.5 																"/>
															</g>
															<g>
																<polygon class="st0" points="13.5,11.5 13.1,12.6 14.1,11.9 																"/>
															</g>
															<g>
																<polygon class="st0" points="13.9,11.4 12.7,11.4 13.7,12 																"/>
															</g>
															<g>
																<polygon class="st0" points="14.1,11.7 13.8,10.6 13.4,11.7 																"/>
															</g>
														</g>
														<g>
															<g>
																<g>
																	<polygon class="st0" points="18.4,12 19.4,11.4 18.2,11.4 																	"/>
																</g>
																<g>
																	<polygon class="st0" points="18,11.9 19,12.6 18.6,11.5 																	"/>
																</g>
																<g>
																	<polygon class="st0" points="18,11.5 17.7,12.6 18.6,11.9 																	"/>
																</g>
																<g>
																	<polygon class="st0" points="18.4,11.4 17.3,11.4 18.2,12 																	"/>
																</g>
																<g>
																	<polygon class="st0" points="18.7,11.7 18.3,10.6 18,11.7 																	"/>
																</g>
															</g>
															<g>
																<g>
																	<g>
																		<polygon class="st0" points="23,12 23.9,11.4 22.8,11.4 																		"/>
																	</g>
																	<g>
																		<polygon class="st0" points="22.6,11.9 23.5,12.6 23.2,11.5 																		"/>
																	</g>
																	<g>
																		<polygon class="st0" points="22.6,11.5 22.2,12.6 23.2,11.9 																		"/>
																	</g>
																	<g>
																		<polygon class="st0" points="23,11.4 21.8,11.4 22.8,12 																		"/>
																	</g>
																	<g>
																		<polygon class="st0" points="23.2,11.7 22.9,10.6 22.5,11.7 																		"/>
																	</g>
																</g>
															</g>
															<g>
																<g>
																	<g>
																		<g>
																			<g>
																				<g>
																					<g>
																						<polygon class="st0" points="2.5,14 3.4,13.3 2.3,13.3 																						"/>
																					</g>
																					<g>
																						<polygon class="st0" points="2.1,13.9 3,14.6 2.7,13.4 																						"/>
																					</g>
																					<g>
																						<polygon class="st0" points="2.1,13.4 1.7,14.6 2.7,13.9 																						"/>
																					</g>
																					<g>
																						<polygon class="st0" points="2.5,13.3 1.3,13.3 2.3,14 																						"/>
																					</g>
																					<g>
																						<polygon class="st0" points="2.7,13.7 2.4,12.5 2,13.7 																						"/>
																					</g>
																				</g>
																				<g>
																					<g>
																						<g>
																							<polygon class="st0" points="7,14 8,13.3 6.8,13.3 																							"/>
																						</g>
																						<g>
																							<polygon class="st0" points="6.6,13.9 7.6,14.6 7.2,13.4 																							"/>
																						</g>
																						<g>
																							<polygon class="st0" points="6.6,13.4 6.3,14.6 7.2,13.9 																							"/>
																						</g>
																						<g>
																							<polygon class="st0" points="7,13.3 5.9,13.3 6.8,14 																							"/>
																						</g>
																						<g>
																							<polygon class="st0" points="7.3,13.7 6.9,12.5 6.6,13.7 																							"/>
																						</g>
																					</g>
																					<g>
																						<g>
																							<g>
																								<polygon class="st0" points="11.6,14 12.5,13.3 11.4,13.3 																								"/>
																							</g>
																							<g>
																								<polygon class="st0" points="11.2,13.9 12.1,14.6 11.8,13.4 																								"/>
																							</g>
																							<g>
																								<polygon class="st0" points="11.2,13.4 10.8,14.6 11.8,13.9 																								"/>
																							</g>
																							<g>
																								<polygon class="st0" points="11.6,13.3 10.4,13.3 11.4,14 																								"/>
																							</g>
																							<g>
																								<polygon class="st0" points="11.8,13.7 11.5,12.5 11.1,13.7 																								"/>
																							</g>
																						</g>
																						<g>
																							<g>
																								<g>
																									<polygon class="st0" points="16.2,14 17.1,13.3 15.9,13.3 																									"/>
																								</g>
																								<g>
																									<polygon class="st0" points="15.7,13.9 16.7,14.6 16.3,13.4 																									"/>
																								</g>
																								<g>
																									<polygon class="st0" points="15.7,13.4 15.4,14.6 16.3,13.9 																									"/>
																								</g>
																								<g>
																									<polygon class="st0" points="16.2,13.3 15,13.3 15.9,14 																									"/>
																								</g>
																								<g>
																									<polygon class="st0" points="16.4,13.7 16,12.5 15.7,13.7 																									"/>
																								</g>
																							</g>
																							<g>
																								<g>
																									<g>
																										<polygon class="st0" points="20.7,14 21.7,13.3 20.5,13.3 																										"/>
																									</g>
																									<g>
																										<polygon class="st0" points="20.3,13.9 21.3,14.6 20.9,13.4 																										"/>
																									</g>
																									<g>
																										<polygon class="st0" points="20.3,13.4 19.9,14.6 20.9,13.9 																										"/>
																									</g>
																									<g>
																										<polygon class="st0" points="20.7,13.3 19.5,13.3 20.5,14 																										"/>
																									</g>
																									<g>
																										<polygon class="st0" points="21,13.7 20.6,12.5 20.2,13.7 																										"/>
																									</g>
																								</g>
																							</g>
																							<g>
																								<g>
																									<g>
																										<polygon class="st0" points="25.3,14 26.2,13.3 25,13.3 																										"/>
																									</g>
																									<g>
																										<polygon class="st0" points="24.9,13.9 25.8,14.6 25.4,13.4 																										"/>
																									</g>
																									<g>
																										<polygon class="st0" points="24.9,13.4 24.5,14.6 25.4,13.9 																										"/>
																									</g>
																									<g>
																										<polygon class="st0" points="25.3,13.3 24.1,13.3 25,14 																										"/>
																									</g>
																									<g>
																										<polygon class="st0" points="25.5,13.7 25.2,12.5 24.8,13.7 																										"/>
																									</g>
																								</g>
																							</g>
																						</g>
																					</g>
																				</g>
																			</g>
																		</g>
																	</g>
																</g>
															</g>
														</g>
													</g>
												</g>
											</g>
										</g>
									</g>
								</g>
							</g>
						</g>
					</g>
				</g>
			</g>
		</g>
		<g>
			<g>
				<g>
					<g>
						<g>
							<g>
								<g>
									<g>
										<g>
											<g>
												<g>
													<g>
														<polygon class="st0" points="4.9,15.8 5.8,15.1 4.6,15.1 														"/>
													</g>
													<g>
														<polygon class="st0" points="4.5,15.7 5.4,16.4 5,15.3 														"/>
													</g>
													<g>
														<polygon class="st0" points="4.5,15.3 4.1,16.4 5,15.7 														"/>
													</g>
													<g>
														<polygon class="st0" points="4.9,15.1 3.7,15.1 4.6,15.8 														"/>
													</g>
													<g>
														<polygon class="st0" points="5.1,15.5 4.7,14.4 4.4,15.5 														"/>
													</g>
												</g>
												<g>
													<g>
														<g>
															<polygon class="st0" points="9.4,15.8 10.4,15.1 9.2,15.1 															"/>
														</g>
														<g>
															<polygon class="st0" points="9,15.7 10,16.4 9.6,15.3 															"/>
														</g>
														<g>
															<polygon class="st0" points="9,15.3 8.6,16.4 9.6,15.7 															"/>
														</g>
														<g>
															<polygon class="st0" points="9.4,15.1 8.2,15.1 9.2,15.8 															"/>
														</g>
														<g>
															<polygon class="st0" points="9.7,15.5 9.3,14.4 8.9,15.5 															"/>
														</g>
													</g>
													<g>
														<g>
															<g>
																<polygon class="st0" points="14,15.8 14.9,15.1 13.7,15.1 																"/>
															</g>
															<g>
																<polygon class="st0" points="13.6,15.7 14.5,16.4 14.1,15.3 																"/>
															</g>
															<g>
																<polygon class="st0" points="13.6,15.3 13.2,16.4 14.1,15.7 																"/>
															</g>
															<g>
																<polygon class="st0" points="14,15.1 12.8,15.1 13.7,15.8 																"/>
															</g>
															<g>
																<polygon class="st0" points="14.2,15.5 13.9,14.4 13.5,15.5 																"/>
															</g>
														</g>
														<g>
															<g>
																<g>
																	<polygon class="st0" points="18.5,15.8 19.5,15.1 18.3,15.1 																	"/>
																</g>
																<g>
																	<polygon class="st0" points="18.1,15.7 19.1,16.4 18.7,15.3 																	"/>
																</g>
																<g>
																	<polygon class="st0" points="18.1,15.3 17.8,16.4 18.7,15.7 																	"/>
																</g>
																<g>
																	<polygon class="st0" points="18.5,15.1 17.4,15.1 18.3,15.8 																	"/>
																</g>
																<g>
																	<polygon class="st0" points="18.8,15.5 18.4,14.4 18,15.5 																	"/>
																</g>
															</g>
															<g>
																<g>
																	<g>
																		<polygon class="st0" points="23.1,15.8 24,15.1 22.9,15.1 																		"/>
																	</g>
																	<g>
																		<polygon class="st0" points="22.7,15.7 23.6,16.4 23.3,15.3 																		"/>
																	</g>
																	<g>
																		<polygon class="st0" points="22.7,15.3 22.3,16.4 23.3,15.7 																		"/>
																	</g>
																	<g>
																		<polygon class="st0" points="23.1,15.1 21.9,15.1 22.9,15.8 																		"/>
																	</g>
																	<g>
																		<polygon class="st0" points="23.3,15.5 23,14.4 22.6,15.5 																		"/>
																	</g>
																</g>
															</g>
															<g>
																<g>
																	<g>
																		<g>
																			<g>
																				<g>
																					<g>
																						<polygon class="st0" points="2.6,17.8 3.5,17.1 2.4,17.1 																						"/>
																					</g>
																					<g>
																						<polygon class="st0" points="2.2,17.7 3.1,18.3 2.8,17.2 																						"/>
																					</g>
																					<g>
																						<polygon class="st0" points="2.2,17.2 1.8,18.3 2.8,17.7 																						"/>
																					</g>
																					<g>
																						<polygon class="st0" points="2.6,17.1 1.4,17.1 2.4,17.8 																						"/>
																					</g>
																					<g>
																						<polygon class="st0" points="2.8,17.4 2.5,16.3 2.1,17.4 																						"/>
																					</g>
																				</g>
																				<g>
																					<g>
																						<g>
																							<polygon class="st0" points="7.1,17.8 8.1,17.1 6.9,17.1 																							"/>
																						</g>
																						<g>
																							<polygon class="st0" points="6.7,17.7 7.7,18.3 7.3,17.2 																							"/>
																						</g>
																						<g>
																							<polygon class="st0" points="6.7,17.2 6.4,18.3 7.3,17.7 																							"/>
																						</g>
																						<g>
																							<polygon class="st0" points="7.1,17.1 6,17.1 6.9,17.8 																							"/>
																						</g>
																						<g>
																							<polygon class="st0" points="7.4,17.4 7,16.3 6.7,17.4 																							"/>
																						</g>
																					</g>
																					<g>
																						<g>
																							<g>
																								<polygon class="st0" points="11.7,17.8 12.6,17.1 11.5,17.1 																								"/>
																							</g>
																							<g>
																								<polygon class="st0" points="11.3,17.7 12.2,18.3 11.9,17.2 																								"/>
																							</g>
																							<g>
																								<polygon class="st0" points="11.3,17.2 10.9,18.3 11.9,17.7 																								"/>
																							</g>
																							<g>
																								<polygon class="st0" points="11.7,17.1 10.5,17.1 11.5,17.8 																								"/>
																							</g>
																							<g>
																								<polygon class="st0" points="11.9,17.4 11.6,16.3 11.2,17.4 																								"/>
																							</g>
																						</g>
																						<g>
																							<g>
																								<g>
																									<polygon class="st0" points="16.2,17.8 17.2,17.1 16,17.1 																									"/>
																								</g>
																								<g>
																									<polygon class="st0" points="15.8,17.7 16.8,18.3 16.4,17.2 																									"/>
																								</g>
																								<g>
																									<polygon class="st0" points="15.8,17.2 15.5,18.3 16.4,17.7 																									"/>
																								</g>
																								<g>
																									<polygon class="st0" points="16.2,17.1 15.1,17.1 16,17.8 																									"/>
																								</g>
																								<g>
																									<polygon class="st0" points="16.5,17.4 16.1,16.3 15.8,17.4 																									"/>
																								</g>
																							</g>
																							<g>
																								<g>
																									<g>
																										<polygon class="st0" points="20.8,17.8 21.7,17.1 20.6,17.1 																										"/>
																									</g>
																									<g>
																										<polygon class="st0" points="20.4,17.7 21.3,18.3 21,17.2 																										"/>
																									</g>
																									<g>
																										<polygon class="st0" points="20.4,17.2 20,18.3 21,17.7 																										"/>
																									</g>
																									<g>
																										<polygon class="st0" points="20.8,17.1 19.6,17.1 20.6,17.8 																										"/>
																									</g>
																									<g>
																										<polygon class="st0" points="21,17.4 20.7,16.3 20.3,17.4 																										"/>
																									</g>
																								</g>
																							</g>
																							<g>
																								<g>
																									<g>
																										<polygon class="st0" points="25.4,17.8 26.3,17.1 25.1,17.1 																										"/>
																									</g>
																									<g>
																										<polygon class="st0" points="24.9,17.7 25.9,18.3 25.5,17.2 																										"/>
																									</g>
																									<g>
																										<polygon class="st0" points="24.9,17.2 24.6,18.3 25.5,17.7 																										"/>
																									</g>
																									<g>
																										<polygon class="st0" points="25.4,17.1 24.2,17.1 25.1,17.8 																										"/>
																									</g>
																									<g>
																										<polygon class="st0" points="25.6,17.4 25.2,16.3 24.9,17.4 																										"/>
																									</g>
																								</g>
																							</g>
																						</g>
																					</g>
																				</g>
																			</g>
																		</g>
																	</g>
																</g>
															</g>
														</g>
													</g>
												</g>
											</g>
										</g>
									</g>
								</g>
							</g>
						</g>
					</g>
				</g>
			</g>
		</g>
	</g>
</g>
</svg>
