<?xml version="1.0" encoding="utf-8"?>
<!-- Generator: Adobe Illustrator 19.1.1, SVG Export Plug-In . SVG Version: 6.00 Build 0)  -->
<svg version="1.1" id="Calque_1" xmlns="http://www.w3.org/2000/svg" xmlns:xlink="http://www.w3.org/1999/xlink" x="0px" y="0px"
	 viewBox="0 0 54.7 36.1" style="enable-background:new 0 0 54.7 36.1;" xml:space="preserve">
<style type="text/css">
	.st0{fill:#E21013;}
	.st1{fill:#FAE800;}
</style>
<g>
	<path class="st0" d="M0,36.1h54.7V0H0V36.1z"/>
</g>
<polygon class="st1" points="8.6,3.4 7.3,7 3.3,7 6.5,9.3 5.3,13 8.5,10.7 11.8,13 11.8,13 10.6,9.3 10.6,9.3 13.8,7.1 13.8,7.1 
	9.8,7 "/>
<polygon class="st1" points="17.3,3.9 17.9,5 18.1,3.8 19.3,3.5 19.3,3.5 18.1,3 18.3,1.7 18.3,1.7 17.4,2.7 16.2,2.2 16.9,3.3 
	16,4.2 "/>
<polygon class="st1" points="20.7,7.4 20.9,8.6 21.5,7.5 22.8,7.7 22.8,7.7 21.9,6.8 22.5,5.7 22.5,5.7 21.3,6.3 20.4,5.4 20.6,6.6 
	19.4,7.2 "/>
<polygon class="st1" points="21.6,11.8 21.1,10.7 20.8,11.9 19.5,11.9 20.6,12.6 20.6,12.6 20.2,13.8 21.3,13 22.4,13.7 22.4,13.7 
	21.9,12.5 22.9,11.7 "/>
<polygon class="st1" points="18.2,14.3 17.4,15.3 16.2,14.8 16.9,15.9 16.1,16.9 17.3,16.5 18.1,17.6 18.1,16.3 19.4,16 18.2,15.6 
	"/>
</svg>
